# xmcd CD database file
#
# Track frame offsets:
#	200
#	16327
#	27032
#	42985
#	54012
#	65922
#	80755
#	103167
#	118737
#	129700
#	145385
#	159887
#	171145
#
# Disc length: 2676 seconds
#
# Revision: 2
# Processed by: cddbd v1.5PL3 Copyright (c) Steve Scherf et al.
# Submitted via: CDex 1.51
#
DISCID=af0a720d
DTITLE=Little Mike and the Tornadoes - Heart Attack
DYEAR=1990
DGENRE=Blues
TTITLE0=Heart Attack
TTITLE1=Never Missed a Woman
TTITLE2=Nothin' but the Blues
TTITLE3=Try My Love
TTITLE4=Blind Love and Whiskey
TTITLE5=Resey's Rock
TTITLE6=Me and the Blues
TTITLE7=One Woman Man
TTITLE8=Christmas Song
TTITLE9=Don't like to Get in Trouble
TTITLE10=Good Gal
TTITLE11=D.O.A.
TTITLE12=Ida B
EXTD=YEAR: 1990
EXTT0=
EXTT1=
EXTT2=
EXTT3=
EXTT4=
EXTT5=
EXTT6=
EXTT7=
EXTT8=
EXTT9=
EXTT10=
EXTT11=
EXTT12=
PLAYORDER=
